# xmcd CD database file
#
# Track frame offsets:
#	150
#	22227
#	49714
#	70184
#	103278
#	115171
#	132039
#	147800
#	166554
#	186402
#	225863
#	264252
#	276265
#	298847
#
# Disc length: 4356 seconds
#
# Revision: 0
# Processed by: cddbd v1.5.1PL2 Copyright (c) Steve Scherf et al.
# Submitted via: CDex 1.51
#
DISCID=c811020e
DTITLE=Mystère Trio - Sérieusement Live
DYEAR=2005
DGENRE=Jazz
TTITLE0=Scarabée
TTITLE1=Villelongue
TTITLE2=Spanouch
TTITLE3=Casamance
TTITLE4=Marguerite
TTITLE5=Tarazoun
TTITLE6=Vent d'Est
TTITLE7=Cosby Swing
TTITLE8=Benny Bop
TTITLE9=Samba-C
TTITLE10=Cariña
TTITLE11=Splendide
TTITLE12=Nazdrovié
TTITLE13=Sacrée Crevette
EXTD=YEAR: 2005
EXTT0=
EXTT1=
EXTT2=
EXTT3=
EXTT4=
EXTT5=
EXTT6=
EXTT7=
EXTT8=
EXTT9=
EXTT10=
EXTT11=
EXTT12=
EXTT13=
PLAYORDER=
